<?xml version="1.0" encoding="utf-8"?>
<!-- Generator: Adobe Illustrator 24.2.3, SVG Export Plug-In . SVG Version: 6.00 Build 0)  -->
<svg version="1.1" id="Layer_1" xmlns="http://www.w3.org/2000/svg" xmlns:xlink="http://www.w3.org/1999/xlink" x="0px" y="0px"
	 viewBox="0 0 1122.1 167.73" style="enable-background:new 0 0 1122.1 167.73;" xml:space="preserve">
<style type="text/css">
	.st0{fill:none;stroke:#000000;stroke-width:4;}
	.st1{stroke:#000000;stroke-width:3;stroke-miterlimit:10;}
	.st2{stroke:#000000;stroke-width:2;stroke-miterlimit:10;}
	.st3{fill:#231F20;}
	.st4{fill:#FFFFFF;}
	.st5{fill-rule:evenodd;clip-rule:evenodd;}
	.st6{fill:none;}
</style>
<g>
	<path class="st6" d="M639.85,71.5c-17.92,0-32.28,14.37-32.28,32.28s14.37,32.28,32.28,32.28c17.9,0,32.28-14.37,32.28-32.28
		S657.75,71.5,639.85,71.5z"/>
	<path class="st6" d="M944.3,71.5c-17.91,0-32.28,14.37-32.28,32.28s14.37,32.28,32.28,32.28c17.9,0,32.28-14.37,32.28-32.28
		S962.2,71.5,944.3,71.5z"/>
	<path class="st6" d="M812.96,71.5c-17.91,0-32.28,14.37-32.28,32.28s14.37,32.28,32.28,32.28c17.91,0,32.28-14.37,32.28-32.28
		S830.87,71.5,812.96,71.5z"/>
	<path class="st6" d="M508.51,71.5c-17.91,0-32.28,14.37-32.28,32.28s14.37,32.28,32.28,32.28c17.92,0,32.28-14.37,32.28-32.28
		S526.43,71.5,508.51,71.5z"/>
	<path d="M671.9,55.81c-9.51-6.63-21.01-10.39-33.38-10.39c-32.28,0-58.37,26.08-58.37,58.37c0,32.5,26.09,58.37,58.37,58.37
		c12.38,0,23.87-3.76,33.38-10.39v7.96h28.08V8.27H671.9V55.81z M639.85,136.07c-17.92,0-32.28-14.37-32.28-32.28
		s14.37-32.28,32.28-32.28c17.9,0,32.28,14.37,32.28,32.28S657.75,136.07,639.85,136.07z"/>
	<path d="M540.57,55.81c-9.51-6.63-21.01-10.39-33.38-10.39c-32.28,0-58.37,26.08-58.37,58.37c0,32.5,26.09,58.37,58.37,58.37
		c12.38,0,23.87-3.76,33.38-10.39v7.96h28.08V46.74h-28.08V55.81z M508.51,136.07c-17.91,0-32.28-14.37-32.28-32.28
		S490.6,71.5,508.51,71.5c17.92,0,32.28,14.37,32.28,32.28S526.43,136.07,508.51,136.07z"/>
	<path d="M845.02,55.81c-9.51-6.63-21.01-10.39-33.38-10.39c-32.28,0-58.37,26.08-58.37,58.37c0,32.5,26.08,58.37,58.37,58.37
		c12.38,0,23.88-3.76,33.38-10.39v7.96h28.08V8.27h-28.08V55.81z M812.96,136.07c-17.91,0-32.28-14.37-32.28-32.28
		s14.37-32.28,32.28-32.28c17.91,0,32.28,14.37,32.28,32.28S830.87,136.07,812.96,136.07z"/>
	<path d="M976.35,55.81c-9.51-6.63-21.01-10.39-33.38-10.39c-32.28,0-58.37,26.08-58.37,58.37c0,32.5,26.08,58.37,58.37,58.37
		c12.38,0,23.88-3.76,33.38-10.39v7.96h28.08V46.74h-28.08V55.81z M944.3,136.07c-17.91,0-32.28-14.37-32.28-32.28
		S926.39,71.5,944.3,71.5c17.9,0,32.28,14.37,32.28,32.28S962.2,136.07,944.3,136.07z"/>
	<path d="M1083.14,92.51l-17.91-3.54c-11.5-2.21-19.46-4.42-19.46-11.28c0-7.51,7.74-10.83,17.47-10.83
		c14.15,0,19.9,7.07,20.34,15.47h28.31c-1.55-22.11-19.24-36.92-47.76-36.92c-29.41,0-46.88,16.13-46.88,37.14
		c0,25.65,20.79,29.85,38.69,33.16l14.81,2.66c10.61,1.99,15.25,5.08,15.25,11.28c0,5.52-5.3,11.05-17.91,11.05
		c-18.35,0-24.32-9.5-24.54-17.69h-28.74c0.88,22.77,20.34,38.92,52.84,38.92c26.53,0,48.42-11.5,48.42-36.92
		C1116.08,107.32,1106.13,96.93,1083.14,92.51z"/>
	<rect x="713.69" y="8.27" width="28.08" height="28.08"/>
	<rect x="713.69" y="46.74" width="28.08" height="112.98"/>
</g>
<rect x="9.55" y="42.38" width="408.46" height="27.79"/>
<rect x="9.55" y="87.34" width="408.46" height="27.79"/>
<rect x="9.55" y="132.29" width="408.46" height="27.79"/>
</svg>
