<?xml version="1.0" encoding="utf-8"?>
<!-- Generator: Adobe Illustrator 24.2.1, SVG Export Plug-In . SVG Version: 6.00 Build 0)  -->
<svg version="1.1" id="Layer_1" xmlns="http://www.w3.org/2000/svg" xmlns:xlink="http://www.w3.org/1999/xlink" x="0px" y="0px"
	 viewBox="0 0 693.31 217.56" style="enable-background:new 0 0 693.31 217.56;" xml:space="preserve">
<style type="text/css">
	.st0{fill:#FFFFFF;}
	.st1{fill:none;stroke:#FFFFFF;stroke-width:0.25;stroke-miterlimit:10;}
	.st2{fill:none;stroke:#FFFFFF;stroke-miterlimit:10;}
	.st3{fill:none;stroke:#7F7F7F;stroke-width:0.25;stroke-miterlimit:10;}
	.st4{display:none;fill:none;stroke:#000000;stroke-miterlimit:10;}
	.st5{fill:none;stroke:#000000;stroke-miterlimit:10;}
	.st6{fill:none;stroke:#000000;stroke-width:7;stroke-miterlimit:10;}
</style>
<path d="M172.82,0v217.56H0V0H172.82z M32.65,33.02v151.42H64.8V122.4h61.08V93.78H65.12V60.99h73.94V33.02H32.65z"/>
<path d="M185.68,184.44L236.8,33.02h29.26l51.44,151.42h-31.18l-10.93-35.33h-47.58l-10.93,35.33H185.68z M267.66,122.4
	l-16.07-51.76l-16.4,51.76H267.66z"/>
<path d="M384.68,33.02c0,0,57.87,1.84,57.87,74.66s-56.26,76.76-56.26,76.76h-54.97V33.02H384.68z M360.28,58.74v99.98h14.43
	c0,0,38.58,1.16,38.58-48.99s-35.36-50.99-35.36-50.99H360.28z"/>
<polygon points="460.87,33.02 460.87,184.44 557.32,184.44 557.32,158.73 489.81,158.73 489.81,116.61 541.57,116.61 541.57,90.25 
	489.81,90.25 489.81,58.74 555.39,58.74 555.39,33.02 "/>
<path d="M641.23,33.02c0,0,38.58,2.73,38.58,43.4s-28.61,46.62-28.61,46.62l42.11,61.4h-32.15l-40.51-58.51h-13.82v58.51h-28.93
	V33.02H641.23z M606.51,58.74v40.51h29.09c0,0,14.95-2.41,14.95-20.25s-13.18-20.25-13.18-20.25H606.51z"/>
</svg>
