<?xml version="1.0" encoding="utf-8"?>
<!-- Generator: Adobe Illustrator 24.2.1, SVG Export Plug-In . SVG Version: 6.00 Build 0)  -->
<svg version="1.1" id="Layer_1" xmlns="http://www.w3.org/2000/svg" xmlns:xlink="http://www.w3.org/1999/xlink" x="0px" y="0px"
	 viewBox="0 0 1316.67 241.93" style="enable-background:new 0 0 1316.67 241.93;" xml:space="preserve">
<style type="text/css">
	.st0{fill:#FFFFFF;}
	.st1{fill:none;stroke:#FFFFFF;stroke-width:0.25;stroke-miterlimit:10;}
	.st2{fill:none;stroke:#FFFFFF;stroke-miterlimit:10;}
	.st3{fill:none;stroke:#7F7F7F;stroke-width:0.25;stroke-miterlimit:10;}
	.st4{display:none;fill:none;stroke:#000000;stroke-miterlimit:10;}
	.st5{fill:none;stroke:#000000;stroke-miterlimit:10;}
</style>
<path d="M0,241.93L2.14,0h166.28c0,0,84.21,5.77,84.21,86.77s-95.32,82.52-95.32,82.52l-67.89,1.09v71.55H0z M90.16,63.4v46.31
	h56.96c0,0,20.55-1.24,20.55-24.76S139.93,63.4,139.93,63.4H90.16z M519,241.93L521.14,0h166.28c0,0,84.21,5.77,84.21,86.77
	s-95.32,82.52-95.32,82.52l-67.89,1.09v71.55H519z M609.16,63.4v46.31h56.96c0,0,20.55-1.24,20.55-24.76S658.93,63.4,658.93,63.4
	H609.16z M211.01,241.93L316.52,0h84.63l102.95,241.93h-91.22l-13.92-39.81h-83.53l-15.75,39.81H211.01z M379.9,144.24l-20.52-60.08
	l-23.08,60.08H379.9z M787.65,0v242.19h239.23l-1.47-63.15H875.21l0.73-28.58l130.79-0.37l0.37-58.98l-131.52-0.73l0.37-27.03
	h144.71V0H787.65z M1229.11,0c21.07,1.02,39.57,10.16,39.57,10.16s31.32,13.19,38.47,54.22s-38.47,67.04-38.47,67.04
	s10.12,5.52,17.58,11.36c8.28,6.47,14.29,20.52,14.29,20.52c4.79,10.08,9.75,57.35,10.26,63.75c0.72,9.11,5.86,15.02,5.86,15.02
	l-88.66-0.37c0,0-4.56-14.52-5.96-26.11c-1.38-11.39-4.11-30.49-6.86-36.54c-2.75-6.04-7.69-9.76-7.69-9.76
	c-14.84-15.44-71.44-8.19-71.44-8.19v81.1h-87.93V0H1229.11z M1137.15,58.52v46.16h63.75c0,0,23.26-0.92,23.81-23.08
	c0.55-22.16-24.91-23.08-24.91-23.08H1137.15z"/>
</svg>
