<svg id="Layer_1" data-name="Layer 1" xmlns="http://www.w3.org/2000/svg" viewBox="0 0 597.05 180.33"><title>logos-new</title><path d="M232.55,303.81h-20l-17.6-175.92h20.24l7.91,104.89,8.58-104.89h18.69Z" transform="translate(-194.94 -125.69)"/><path d="M355.26,303.81V180.66l-15.4,123.15H325.57L311.71,180.45V303.81H293.46V127.89h30.13L335,227.29l14.51-99.4h26.17V303.81Z" transform="translate(-194.94 -125.69)"/><path d="M422.11,303.81l-1.32-31.88H408.7l-2,31.88H388.46l14.3-175.92h25.95l14.51,175.92Zm-6.38-124.46-5.28,70.15h9Z" transform="translate(-194.94 -125.69)"/><path d="M494,303.81l-1.76-4.17c-2.86,4.17-8.57,6.37-14.07,6.37-13.86,0-22.87-10.33-22.87-30.12V155.82c0-17.82,11-30.13,25.29-30.13S505.9,138,505.9,155.82v36.06h-20v-37.6c0-4-1.76-6.38-5.27-6.38-3.3,0-5.28,2.42-5.28,6.38V279.62c0,4,2.2,6.38,5.5,6.38,3.51,0,5.71-2.42,5.71-6.38V236.74h-4.83V217.83h25.07v86Z" transform="translate(-194.94 -125.69)"/><path d="M551.64,303.81l-1.32-31.88h-12.1l-2,31.88H518l14.3-175.92h25.94l14.52,175.92Zm-6.38-124.46L540,249.5h9Z" transform="translate(-194.94 -125.69)"/><path d="M602.44,282.7h22v21.11H580L604,149H584.84V127.89h41.79Z" transform="translate(-194.94 -125.69)"/><path d="M640.92,303.81V127.89h20.67V303.81Z" transform="translate(-194.94 -125.69)"/><path d="M716.35,303.81l-21.11-96.1v96.1H678.08V127.89H699l17.59,97.64V127.89H733.5V303.81Z" transform="translate(-194.94 -125.69)"/><path d="M749.33,303.81V127.89H792V149H769.79v53.66h15v21.11h-15V282.7H792v21.11Z" transform="translate(-194.94 -125.69)"/></svg>