<?xml version="1.0" encoding="utf-8"?>
<!-- Generator: Adobe Illustrator 24.2.1, SVG Export Plug-In . SVG Version: 6.00 Build 0)  -->
<svg version="1.1" id="Layer_1" xmlns="http://www.w3.org/2000/svg" xmlns:xlink="http://www.w3.org/1999/xlink" x="0px" y="0px"
	 viewBox="0 0 1385.09 202.84" style="enable-background:new 0 0 1385.09 202.84;" xml:space="preserve">
<style type="text/css">
	.st0{fill:#221F20;}
</style>
<g>
	<g>
		<path class="st0" d="M781.51,4.73V6.7h17.04l-43.34,140.57L703.89,6.71h16.89V4.73h-68.79V6.7h18.1L741.15,201L802.23,6.71h16.4
			V4.73L781.51,4.73z M1102.83,4.73h69v1.98h-18.3v149.82c0,23.47,24.17,37.75,45.32,37.75c22.76,0,41.93-15.84,41.93-39.1V6.72
			h-21.64V4.73h162.28v69.51h-1.35c-2.05-18.39-5.57-37.28-18.23-51.63c-12.81-14.49-30.2-15.9-48.07-15.9h-19.31v89.37
			c3.97,0.41,8,0.7,12.02,0.7c24.25,0,30.54-16.68,31.61-37.33h1.76v78.41h-1.76c-3.04-18.73-11.31-38.82-33.31-38.82
			c-3.46,0-6.85,0.22-10.32,0.5v95.59h28.92c14.99,0,29.91-6.51,40.52-16.97c9.12-8.93,15.24-20.46,17.53-33.02
			c1.2-6.99,1.76-14.13,2.12-21.21h1.55v73.17h-139.21v-1.98h16.18V6.71h-18.4v149.03c0,30.83-29.27,44.48-56.7,44.48
			c-31.04,0-65.27-15.05-65.27-50.56V6.71h-18.86V4.73L1102.83,4.73z"/>
		<path class="st0" d="M913.82,101.66c0-28.08-10.05-98.2-48.01-98.2c-38.1,0-48.01,70.07-48.01,98.22
			c0,28.13,9.98,98.27,48.01,98.27C903.79,199.94,913.82,129.73,913.82,101.66 M865.68,202.84c-22.84,0-44.69-12.81-58.83-30.26
			c-16.12-19.87-23.97-45.53-23.97-70.92c0-24.4,7.21-48.93,22.13-68.38c14.71-19.07,36.83-32.73,61.44-32.73
			c22.63,0,44.34,12.95,58.27,30.19c16.05,19.87,24.04,45.61,24.04,70.99c0,24.32-7.28,48.85-22.13,68.29
			C912.05,188.98,890.07,202.84,865.68,202.84"/>
		<path d="M644.31,200.19h-56.46L612.4,89.08c0.5-3.17,0.98-6.17,1.47-8.98c0.49-2.8,0.74-5.69,0.74-8.61
			c0-4.41-0.8-8.02-2.38-10.83c-1.36-2.56-3.31-4.76-5.69-6.42c-2.12-1.43-4.48-2.48-6.96-3.11c-2.04-0.55-4.13-0.86-6.24-0.92
			c-4.4,0-8.56,0.98-12.46,2.93c-3.92,1.97-7.34,4.4-10.28,7.34c-4.64,4.65-8.25,10.46-10.82,17.43
			c-2.62,7.12-4.76,14.41-6.42,21.81l-23.1,100.49h-56.46l42.9-188.87h56.85l-5.5,22.74l8.62-8.62c3.29-3.3,7.15-6.3,11.55-8.98
			c4.8-2.87,9.91-5.21,15.22-6.97c5.74-1.95,12.28-2.93,19.61-2.93c7.09,0,13.81,1.04,20.17,3.12c6.35,2.07,11.91,5.2,16.68,9.34
			c4.77,4.16,8.5,9.29,11.19,15.41c2.69,6.11,4.04,13.2,4.04,21.27c0,3.42-0.31,6.91-0.92,10.45c-0.62,3.54-1.16,7.02-1.66,10.45
			L644.31,200.19z M360.11,68.91c2.21-4.14,5.08-8.06,8.62-11.73c3.66-3.76,7.94-6.86,12.65-9.17c4.89-2.45,10.88-3.67,17.98-3.67
			c7.09,0,13.68,1.71,19.79,5.13c3.92,2.21,6.98,4.71,9.18,7.52c2.2,2.81,3.78,5.69,4.77,8.62c0.97,2.93,1.59,5.68,1.83,8.25
			c0.24,2.57,0.37,4.71,0.37,6.42h-80.69C356.07,76.86,357.9,73.07,360.11,68.91 M312.81,176.55c7.34,8.67,16.87,15.71,28.59,21.08
			c2.07,0.94,4.25,1.78,6.48,2.56h73.44c0.19-0.06,0.4-0.1,0.58-0.18c10.39-3.79,19.14-8.5,26.22-14.12
			c7.1-5.63,12.89-11.6,17.43-17.98c4.52-6.35,8.37-12.09,11.55-17.23l-47.32-16.87c-1.46,2.45-3.29,5.26-5.49,8.43
			c-2.21,3.18-5.08,6.23-8.62,9.17c-3.98,3.19-8.44,5.72-13.21,7.52c-5.25,2.07-11.54,3.11-18.89,3.11
			c-13.45,0-23.59-4.89-30.43-14.67c-2.84-3.89-4.66-8.43-5.33-13.2c-0.61-4.64-0.91-10.75-0.91-18.34h137.51
			c0.97-8.28,1.46-16.61,1.47-24.95c0-15.38-2.51-28.59-7.51-39.59c-5.01-11-11.56-19.92-19.62-26.78
			c-8.15-6.88-17.64-12-27.87-15.02c-10.46-3.17-21.34-4.77-32.27-4.77c-18.83,0-34.97,3.66-48.41,10.98
			c-13.45,7.35-24.51,16.51-33.18,27.52c-8.5,10.67-15.02,22.77-19.25,35.74c-4.16,12.85-6.24,24.76-6.24,35.76
			c0,10.76,1.71,21.58,5.13,32.46s8.81,20.66,16.14,29.33"/>
		<path d="M167.95,68.91c2.21-4.14,5.08-8.06,8.62-11.73c3.66-3.76,7.94-6.86,12.65-9.17c4.89-2.45,10.88-3.67,17.98-3.67
			c7.09,0,13.69,1.71,19.8,5.13c3.91,2.21,6.97,4.71,9.17,7.52c2.21,2.81,3.79,5.69,4.77,8.62c0.97,2.93,1.59,5.68,1.83,8.25
			c0.24,2.57,0.37,4.71,0.37,6.42h-80.69C163.92,76.86,165.75,73.07,167.95,68.91 M120.64,176.55c7.34,8.67,16.87,15.71,28.6,21.08
			c2.07,0.94,4.25,1.78,6.46,2.56h73.44c0.19-0.06,0.4-0.1,0.59-0.18c10.38-3.79,19.13-8.5,26.21-14.12
			c7.1-5.63,12.9-11.6,17.43-17.98c4.52-6.35,8.37-12.09,11.55-17.23l-47.3-16.87c-1.47,2.45-3.3,5.26-5.5,8.43
			c-2.21,3.18-5.08,6.23-8.62,9.17c-3.98,3.18-8.43,5.72-13.2,7.52c-5.26,2.07-11.56,3.11-18.89,3.11
			c-13.45,0-23.6-4.89-30.44-14.67c-2.83-3.89-4.66-8.43-5.31-13.2c-0.62-4.64-0.92-10.75-0.92-18.34h137.52
			c0.97-8.28,1.46-16.61,1.47-24.95c0-15.38-2.52-28.59-7.52-39.59c-5.01-11-11.55-19.92-19.62-26.78
			c-8.15-6.88-17.64-12-27.87-15.02c-10.46-3.17-21.34-4.77-32.27-4.77c-18.82,0-34.97,3.66-48.4,10.98
			c-13.46,7.35-24.51,16.51-33.19,27.52c-8.5,10.67-15.02,22.77-19.25,35.74c-4.16,12.85-6.24,24.76-6.24,35.76
			c0,10.76,1.71,21.58,5.14,32.46c3.42,10.88,8.81,20.66,16.13,29.33"/>
		<path d="M4.04,141.15c-0.5,3.43-1.05,6.8-1.66,10.09c-0.61,3.3-0.91,6.66-0.91,10.08c0,10.52,2.25,18.65,6.78,24.39
			c4.53,5.75,10.09,9.97,16.68,12.66c1.77,0.73,3.57,1.3,5.39,1.82h51.12c0.96-0.12,1.94-0.23,2.9-0.36l9.9-43.64H83.24
			c-2.69,0-5.25-0.19-7.7-0.55c-2.37-0.34-4.67-1.09-6.79-2.21c-2.11-1.12-3.83-2.85-4.95-4.95c-1.22-2.2-1.83-5.25-1.83-9.16
			c0-1.96,0.31-4.45,0.92-7.52c0.6-3.06,1.15-5.93,1.65-8.62l17.96-78.84h32.63l7.71-37.77H7.7L0,44.34h25.67L4.03,141.15H4.04z"/>
		<path class="st0" d="M1087.48,1.34v67.53h-1.55c-2.9-13.3-7-26.23-14.14-37.97c-8.49-13.72-21.98-29.13-39.6-29.13
			c-40.44,0-44.11,72.47-44.11,100.12c0,24.75,1.98,50.27,10.96,73.45c6.29,16.27,15.41,24.25,32.31,24.25
			c13.43,0,27.71-6.79,34.85-18.45c1.83-3.05,1.97-6.43,1.97-9.9v-52.18h-17.67v-2.04h64.7v2.05h-15.13v78.05h-1.35
			c-3.82-6.36-9.83-10.54-17.54-10.54c-5.57,0-11.02,1.98-15.9,4.66l-4.38,2.41c-9.9,4.38-19.37,7.56-30.33,7.56
			c-50.2,0-76.91-53.52-76.91-97.91c0-32.46,12.37-67.19,38.66-87.47C1004.12,6.71,1018.4,0,1033.61,0c5.94,0,11.81,1.83,17.32,4.02
			l4.03,1.55c4.59,1.7,9.61,3.34,14.56,3.34c6.15,0,11.67-4.04,16.41-7.56h1.55L1087.48,1.34z"/>
	</g>
</g>
</svg>
