<?xml version="1.0" encoding="utf-8"?><!DOCTYPE svg PUBLIC "-//W3C//DTD SVG 1.1//EN" "http://www.w3.org/Graphics/SVG/1.1/DTD/svg11.dtd"><svg version="1.1" id="Layer_1" xmlns="http://www.w3.org/2000/svg" xmlns:xlink="http://www.w3.org/1999/xlink" x="0px" y="0px"  width="509.001px" height="62px" viewBox="0 0 509.001 62" enable-background="new 0 0 509.001 62" xml:space="preserve"><g> <path d="M70.759,55.011H52.713L45.38,25.706l-7.456,29.305H19.742L8.354,7.99h16.453l5.193,30.302L36.997,7.99h17.181l6.392,30.173  L65.693,7.99h16.39L70.759,55.011z"/> <path d="M104.718,18.781c20.041,0,26.44,9.724,26.44,18.514c0,12.456-11.523,18.649-26.106,18.649  c-12.391,0-26.108-4.665-26.108-18.514C78.943,23.842,91.994,18.781,104.718,18.781z M104.912,28.039  c-6.991,0-9.718,4.729-9.718,8.854c0,7.263,5.325,9.529,10.183,9.529c3.201,0,9.593-1.601,9.593-9.258  C114.97,31.504,111.175,28.039,104.912,28.039z"/> <path d="M148.999,24.176c3.86-2.798,8.058-5.128,15.32-5.128c14.852,0,16.646,7.728,16.646,15.984v19.979H165.18V38.027  c0-7.127-3.795-8.922-7.987-8.922c-7.392,0-8.193,6.123-8.193,9.123v16.782h-15.845V19.715h15.845V24.176z"/> <path d="M214.929,55.011v-3.465c-2.267,1.935-7.332,4.263-13.319,4.263c-11.322,0-18.718-7.657-18.718-18.312  c0-8.661,5.531-18.914,18.783-18.914c7.189,0,10.855,2.732,13.254,4.663V7.99h15.714v47.021H214.929z M206.871,29.237  c-4.864,0-8.266,2.863-8.266,7.927c0,4.593,3.004,8.254,8.13,8.254c4.864,0,8.193-3.46,8.193-8.254  C214.929,33.5,213.062,29.237,206.871,29.237z"/> <path d="M249.086,39.562c1.264,6.659,7.792,7.527,9.787,7.527c3.934,0,6.931-2.003,7.93-3.201l16.382,0.798  c-3.193,6.594-11.323,11.322-25.044,11.322c-11.651,0-25.306-4.462-25.306-18.844c0-3.528,1.066-9.722,7.124-13.919  c4.329-3.065,9.328-4.527,18.182-4.527c7.527,0,15.515,1.198,20.982,6.857c3.329,3.53,4.993,7.658,4.993,13.986H249.086z   M267.601,33.435c-0.863-2.398-3.065-5.662-8.992-5.662c-1.534,0-7.191,0.136-8.991,5.662H267.601z"/> <path d="M300.867,19.715v5.596c1.596-2.732,5.856-6.263,12.189-6.263v13.919c-0.133-0.063-2.602-0.265-3.729-0.265  c-3.666,0-8.525,0.531-8.525,6.329v15.979h-15.648V19.715H300.867z"/> <path d="M314.207,55.011V7.99h15.786v47.021H314.207z"/> <path d="M365.62,55.011c-0.4-1.6-0.466-1.729-0.602-3.395c-2.593,1.198-9.321,4.392-17.515,4.392  c-11.453,0-15.515-5.726-15.515-11.187c0-9.724,8.324-12.32,32.367-12.32h0.396v-0.4c0-4.127-4.656-4.595-7.59-4.595  c-2.864,0-8.124,0.468-8.592,3.195h-15.116c0.729-4.593,2.798-7.592,6.19-9.387c3.597-1.93,10.325-2.798,16.984-2.798  c18.312,0,23.378,3.729,23.378,12.721V49.88c0,3.136,0.662,3.934,1.93,5.131H365.62z M355.833,39.295  c-5.065,0.267-7.93,1.062-7.93,3.861c0,1.464,1.334,3.53,5.461,3.53c2.469,0,7.392-1.067,9.926-3.931  c1.066-1.198,1.326-2.333,1.663-3.926L355.833,39.295z"/> <path d="M399.87,24.176c3.867-2.798,8.058-5.128,15.32-5.128c14.848,0,16.646,7.728,16.646,15.984v19.979h-15.778V38.027  c0-7.127-3.798-8.922-7.995-8.922c-7.396,0-8.193,6.123-8.193,9.123v16.782h-15.852V19.715h15.852V24.176z"/> <path d="M465.8,55.011v-3.465c-2.26,1.935-7.325,4.263-13.317,4.263c-11.323,0-18.715-7.657-18.715-18.312  c0-8.661,5.526-18.914,18.778-18.914c7.197,0,10.858,2.732,13.254,4.663V7.99h15.721v47.021H465.8z M457.742,29.237  c-4.864,0-8.259,2.863-8.259,7.927c0,4.593,2.999,8.254,8.123,8.254c4.864,0,8.193-3.46,8.193-8.254  C465.8,33.5,463.936,29.237,457.742,29.237z"/> <path d="M485.458,55.011V42.756h15.313v12.255H485.458z"/></g></svg>